HIERARCHY
ROOT Hips
{
	OFFSET 28.026899 42.631786 98.480507
	CHANNELS 6 Xposition Yposition Zposition Xrotation Yrotation Zrotation
	JOINT spine
	{
		OFFSET 0.000000 -0.477356 8.301041
		CHANNELS 3 Xrotation Yrotation Zrotation
		JOINT spine1
		{
			OFFSET 0.000000 0.000000 10.456497
			CHANNELS 3 Xrotation Yrotation Zrotation
			JOINT spine2
			{
				OFFSET 0.000000 0.000000 10.019203
				CHANNELS 3 Xrotation Yrotation Zrotation
				JOINT Neck
				{
					OFFSET 0.000000 -1.226418 25.723495
					CHANNELS 3 Xrotation Yrotation Zrotation
					JOINT Head
					{
						OFFSET 0.000000 0.000000 7.771744
						CHANNELS 3 Xrotation Yrotation Zrotation
						End Site
						{
							OFFSET 0.000000 6.203938 18.812012
						}
					}
				}
				JOINT RightShoulder
				{
					OFFSET -4.218800 0.587437 10.819992
					CHANNELS 3 Xrotation Yrotation Zrotation
					JOINT RightArm
					{
						OFFSET 0.000000 -0.000004 14.191406
						CHANNELS 3 Xrotation Yrotation Zrotation
						JOINT RightArmRoll
						{
							OFFSET 0.000000 0.000000 7.164078
							CHANNELS 3 Xrotation Yrotation Zrotation
							JOINT RightForeArm
							{
								OFFSET 0.000000 -0.000004 20.866501
								CHANNELS 3 Xrotation Yrotation Zrotation
								JOINT RightForeArmRoll
								{
									OFFSET 0.000000 0.000000 8.039215
									CHANNELS 3 Xrotation Yrotation Zrotation
									JOINT RightHand
									{
										OFFSET 0.000000 -0.000004 16.132996
										CHANNELS 3 Xrotation Yrotation Zrotation
										End Site
										{
											OFFSET 0.000000 0.000000 0.100006
										}
									}
								}
							}
						}
					}
				}
				JOINT LeftShoulder
				{
					OFFSET 4.218801 0.587437 10.819992
					CHANNELS 3 Xrotation Yrotation Zrotation
					JOINT LeftArm
					{
						OFFSET 0.000000 -0.000004 14.191406
						CHANNELS 3 Xrotation Yrotation Zrotation
						JOINT LeftArmRoll
						{
							OFFSET 0.000000 0.000000 7.164078
							CHANNELS 3 Xrotation Yrotation Zrotation
							JOINT LeftForeArm
							{
								OFFSET 0.000000 -0.000004 20.866501
								CHANNELS 3 Xrotation Yrotation Zrotation
								JOINT LeftForeArmRoll
								{
									OFFSET 0.000000 0.000000 8.039215
									CHANNELS 3 Xrotation Yrotation Zrotation
									JOINT LeftHand
									{
										OFFSET 0.000000 -0.000004 16.132996
										CHANNELS 3 Xrotation Yrotation Zrotation
										End Site
										{
											OFFSET 0.000000 0.000000 0.100006
										}
									}
								}
							}
						}
					}
				}
			}
		}
	}
	JOINT RightUpLeg
	{
		OFFSET -7.357729 1.131821 -1.349213
		CHANNELS 3 Xrotation Yrotation Zrotation
		JOINT RightUpLegRoll
		{
			OFFSET 0.000000 -0.000004 18.916801
			CHANNELS 3 Xrotation Yrotation Zrotation
			JOINT RightLeg
			{
				OFFSET 0.000000 0.000004 -23.425598
				CHANNELS 3 Xrotation Yrotation Zrotation
				JOINT RightLegRoll
				{
					OFFSET 0.000000 -0.000004 23.502296
					CHANNELS 3 Xrotation Yrotation Zrotation
					JOINT RightFoot
					{
						OFFSET 0.000000 -0.000004 19.561699
						CHANNELS 3 Xrotation Yrotation Zrotation
						JOINT RightToeBase
						{
							OFFSET 0.000000 0.000000 16.352600
							CHANNELS 3 Xrotation Yrotation Zrotation
							End Site
							{
								OFFSET 0.006931 0.912834 7.919434
							}
						}
					}
				}
			}
		}
	}
	JOINT LeftUpLeg
	{
		OFFSET 7.357729 1.131821 -1.349213
		CHANNELS 3 Xrotation Yrotation Zrotation
		JOINT LeftUpLegRoll
		{
			OFFSET 0.000000 -0.000004 18.916901
			CHANNELS 3 Xrotation Yrotation Zrotation
			JOINT LeftLeg
			{
				OFFSET 0.000000 -0.000004 23.425499
				CHANNELS 3 Xrotation Yrotation Zrotation
				JOINT LeftLegRoll
				{
					OFFSET 0.000000 -0.000004 23.719498
					CHANNELS 3 Xrotation Yrotation Zrotation
					JOINT LeftFoot
					{
						OFFSET 0.000000 -0.000004 19.344406
						CHANNELS 3 Xrotation Yrotation Zrotation
						JOINT LeftToeBase
						{
							OFFSET 0.000000 0.000000 16.352600
							CHANNELS 3 Xrotation Yrotation Zrotation
							End Site
							{
								OFFSET -0.031063 0.912834 7.919434
							}
						}
					}
				}
			}
		}
	}
}
MOTION
Frames: 10
Frame Time: 0.041667
29.905300 24.070984 98.992409 -4.712840 -0.627938 2.934483 -0.761501 -0.114487 0.181733 2.456568 -0.217197 0.377944 4.101638 -0.212651 0.381041 18.013698 -0.621649 -2.665215 -4.167449 0.945553 -2.734326 -1.652523 -75.177208 -3.682403 -82.560608 -118.502976 -57.887766 -0.000012 0.000000 -0.000019 0.064812 -8.204787 -0.211105 0.000000 0.000008 -3.085522 -5.000221 -7.998973 0.000136 11.254901 67.067239 -11.573455 -62.434049 112.097297 45.408795 0.000001 0.000001 -0.000001 0.071326 8.868135 0.668394 0.000000 -0.000005 3.025671 -5.000232 7.998892 -0.000143 3.631241 -173.701573 2.530749 -179.999991 0.000005 -1.188994 175.762597 -3.442587 -0.535916 -0.000006 -0.000002 0.050179 69.033050 6.928828 2.042328 25.456923 -7.353477 -0.000002 4.019837 173.125788 -1.484913 -0.000005 -0.000005 -1.319560 -6.887119 3.452349 0.871719 -0.000003 0.000000 -0.079500 67.437374 -7.001187 -1.963772 25.456912 7.345077 -0.000004 
29.891701 24.071384 98.996803 -4.709743 -0.628469 2.937984 -0.761310 -0.114450 0.181745 2.458508 -0.217629 0.376280 4.103578 -0.213100 0.379960 18.020351 -0.608669 -2.664217 -4.175414 0.934497 -2.732350 -1.650093 -75.169019 -3.678972 -82.539011 -118.493578 -57.848950 -0.000011 -0.000000 -0.000021 0.064808 -8.191898 -0.211136 0.000004 0.000008 -3.085560 -5.000224 -7.998972 0.000134 11.251457 67.074070 -11.568445 -62.430941 112.074088 45.384384 -0.000000 0.000001 -0.000001 0.071329 8.860066 0.671010 -0.000001 -0.000006 3.025670 -5.000232 7.998892 -0.000143 3.630709 -173.702557 2.524688 -179.999991 0.000005 -1.188994 175.765588 -3.433622 -0.536069 -0.000006 -0.000002 0.050179 69.034204 6.928822 2.041855 25.456931 -7.353476 -0.000002 4.017588 173.123780 -1.487342 -0.000005 -0.000004 -1.319559 -6.886320 3.455323 0.871703 -0.000003 0.000001 -0.079500 67.438528 -7.001187 -1.963797 25.456914 7.345077 -0.000005 
29.893299 24.067989 98.977608 -4.706682 -0.629029 2.941461 -0.761178 -0.114394 0.181757 2.460388 -0.218064 0.374565 4.105459 -0.213552 0.378866 18.027306 -0.595520 -2.663215 -4.183437 0.923391 -2.730361 -1.647446 -75.160932 -3.675314 -82.517612 -118.484289 -57.810168 -0.000011 -0.000000 -0.000022 0.064813 -8.178895 -0.211186 0.000003 0.000009 -3.085591 -5.000223 -7.998974 0.000136 11.248036 67.081111 -11.563404 -62.427417 112.050613 45.359983 0.000002 0.000000 -0.000001 0.071329 8.852465 0.673600 0.000001 -0.000005 3.025670 -5.000233 7.998893 -0.000142 3.630379 -173.702557 2.518362 -179.999991 0.000005 -1.188994 175.768908 -3.424658 -0.536205 -0.000006 -0.000002 0.050179 69.035468 6.928817 2.041374 25.456923 -7.353478 -0.000002 4.015494 173.122756 -1.489601 -0.000005 -0.000005 -1.319560 -6.885359 3.458240 0.871676 -0.000003 0.000001 -0.079499 67.439792 -7.001193 -1.963719 25.456911 7.345076 -0.000004 
29.898800 24.061087 98.977219 -4.703651 -0.629608 2.944928 -0.761094 -0.114326 0.181767 2.462228 -0.218498 0.372814 4.107297 -0.214003 0.377765 18.034358 -0.582253 -2.662203 -4.191493 0.912249 -2.728367 -1.644651 -75.152858 -3.671492 -82.496220 -118.475095 -57.771386 -0.000010 0.000001 -0.000023 0.064808 -8.165804 -0.211248 -0.000001 0.000008 -3.085610 -5.000222 -7.998973 0.000135 11.244715 67.088427 -11.558437 -62.425846 112.026502 45.337805 -0.000001 0.000001 0.000001 0.071327 8.845194 0.676170 -0.000000 -0.000006 3.025669 -5.000230 7.998893 -0.000142 3.630171 -173.703554 2.511757 -179.999991 0.000005 -1.188994 175.772473 -3.414701 -0.536254 -0.000006 -0.000002 0.050179 69.036847 6.928822 2.040788 25.456926 -7.353477 -0.000001 4.013538 173.120748 -1.491855 -0.000005 -0.000004 -1.319559 -6.884286 3.461106 0.871644 -0.000003 0.000001 -0.079500 67.441158 -7.001209 -1.963736 25.456909 7.345076 -0.000005 
29.893600 24.059391 98.980118 -4.700634 -0.630198 2.948391 -0.761034 -0.114250 0.181777 2.464048 -0.218933 0.371041 4.109118 -0.214456 0.376659 18.041520 -0.568917 -2.661195 -4.199558 0.901088 -2.726357 -1.641777 -75.144867 -3.667605 -82.474889 -118.466107 -57.732550 -0.000011 -0.000001 -0.000023 0.064813 -8.152677 -0.211315 0.000003 0.000007 -3.085640 -5.000219 -7.998973 0.000135 11.241394 67.095865 -11.553448 -62.421796 112.002678 45.313104 0.000000 0.000001 0.000000 0.071326 8.838113 0.678732 -0.000000 -0.000005 3.025670 -5.000232 7.998892 -0.000143 3.630051 -173.703554 2.505073 -179.999991 0.000005 -1.188994 175.776148 -3.404745 -0.536311 -0.000006 -0.000002 0.050179 69.038227 6.928826 2.040300 25.456926 -7.353477 -0.000002 4.011622 173.119751 -1.494005 -0.000005 -0.000004 -1.319559 -6.883156 3.463955 0.871608 -0.000003 0.000001 -0.079500 67.442627 -7.001199 -1.963641 25.456912 7.345077 -0.000005 
29.890999 24.060987 98.970299 -4.697626 -0.630791 2.951857 -0.760987 -0.114172 0.181787 2.465868 -0.219369 0.369265 4.110929 -0.214909 0.375550 18.048679 -0.555565 -2.660188 -4.207648 0.889921 -2.724351 -1.638885 -75.136889 -3.663682 -82.453695 -118.457009 -57.693877 -0.000010 0.000001 -0.000021 0.064811 -8.139526 -0.211385 0.000004 0.000008 -3.085661 -5.000224 -7.998971 0.000137 11.238051 67.103303 -11.548427 -62.419958 111.978390 45.290793 0.000001 -0.000000 0.000001 0.071328 8.831083 0.681288 0.000001 -0.000006 3.025670 -5.000230 7.998893 -0.000142 3.629942 -173.704551 2.498308 -179.999991 0.000005 -1.188994 175.779850 -3.394789 -0.536353 -0.000006 -0.000002 0.050179 69.039696 6.928797 2.039804 25.456926 -7.353479 -0.000002 4.009741 173.117729 -1.496220 -0.000005 -0.000005 -1.319559 -6.882015 3.466792 0.871572 -0.000003 0.000000 -0.079499 67.444088 -7.001189 -1.963645 25.456911 7.345077 -0.000005 
29.889400 24.057383 98.985313 -4.694607 -0.631378 2.955322 -0.760918 -0.114099 0.181798 2.467688 -0.219804 0.367498 4.112759 -0.215361 0.374446 18.055837 -0.542246 -2.659183 -4.215716 0.878763 -2.722358 -1.636023 -75.128802 -3.659810 -82.432303 -118.447925 -57.655006 -0.000011 -0.000001 -0.000023 0.064813 -8.126406 -0.211452 0.000003 0.000008 -3.085692 -5.000224 -7.998971 0.000135 11.234704 67.110638 -11.543417 -62.415922 111.954560 45.266198 -0.000000 0.000001 0.000000 0.071329 8.823953 0.683853 0.000000 -0.000005 3.025670 -5.000231 7.998893 -0.000143 3.629802 -173.704551 2.491663 -179.999991 0.000005 -1.188994 175.783497 -3.384833 -0.535403 -0.000006 -0.000002 0.050179 69.041068 6.928800 2.039319 25.456923 -7.353476 -0.000003 4.007820 173.116718 -1.498378 -0.000005 -0.000005 -1.319560 -6.880902 3.469640 0.871536 -0.000003 0.000001 -0.079500 67.445461 -7.001206 -1.963661 25.456911 7.345077 -0.000006 
29.895800 24.050789 98.978607 -4.691567 -0.631950 2.958800 -0.760820 -0.114034 0.181808 2.469548 -0.220239 0.365757 4.114609 -0.215813 0.373345 18.062796 -0.529011 -2.658186 -4.223764 0.867629 -2.720366 -1.633299 -75.120825 -3.656066 -82.410850 -118.438759 -57.616170 -0.000010 0.000000 -0.000021 0.064810 -8.113337 -0.211509 0.000002 0.000008 -3.085722 -5.000225 -7.998972 0.000135 11.231384 67.117967 -11.538457 -62.412144 111.930913 45.241530 -0.000001 0.000000 -0.000000 0.071327 8.816593 0.686431 -0.000000 -0.000005 3.025672 -5.000230 7.998893 -0.000143 3.629565 -173.705535 2.485114 -179.999991 0.000005 -1.188994 175.786980 -3.375869 -0.535535 -0.000006 -0.000002 0.050179 69.042434 6.928803 2.038735 25.456924 -7.353477 -0.000002 4.005823 173.114710 -1.500657 -0.000005 -0.000004 -1.319560 -6.879863 3.472516 0.871505 -0.000003 0.000001 -0.079500 67.446827 -7.001185 -1.963671 25.456914 7.345078 -0.000005 
29.894100 24.048685 98.985306 -4.688497 -0.632499 2.962278 -0.760673 -0.113984 0.181820 2.471448 -0.220674 0.364058 4.116509 -0.216265 0.372256 18.069660 -0.515911 -2.657200 -4.231764 0.856535 -2.718405 -1.630731 -75.112642 -3.652485 -82.389171 -118.429497 -57.577183 -0.000011 -0.000001 -0.000023 0.064812 -8.100366 -0.211555 0.000004 0.000008 -3.085749 -5.000224 -7.998969 0.000136 11.227928 67.124900 -11.533390 -62.408777 111.907513 45.217157 -0.000000 0.000001 0.000000 0.071330 8.808853 0.689027 0.000000 -0.000005 3.025670 -5.000232 7.998893 -0.000143 3.629164 -173.706559 2.478827 -179.999991 0.000005 -1.188994 175.790204 -3.366905 -0.535682 -0.000006 -0.000002 0.050179 69.043602 6.928832 2.038167 25.456926 -7.353478 -0.000002 4.003675 173.113699 -1.502949 -0.000005 -0.000004 -1.319560 -6.878952 3.475452 0.871481 -0.000003 0.000001 -0.079499 67.447988 -7.001220 -1.963604 25.456912 7.345075 -0.000004 
29.888100 24.044079 98.981010 -4.685375 -0.633015 2.965781 -0.760456 -0.113954 0.181832 2.473408 -0.221106 0.362414 4.118470 -0.216714 0.371180 18.076219 -0.502998 -2.656239 -4.239714 0.845494 -2.716464 -1.628410 -75.104446 -3.649172 -82.367232 -118.420071 -57.538121 -0.000008 0.000000 -0.000022 0.064809 -8.087524 -0.211581 0.000002 0.000008 -3.085778 -5.000221 -7.998973 0.000135 11.224477 67.131634 -11.528389 -62.405915 111.884475 45.192923 0.000000 0.000000 0.000000 0.071329 8.800584 0.691654 -0.000001 -0.000006 3.025670 -5.000233 7.998893 -0.000143 3.628568 -173.706546 2.472952 -179.999991 0.000005 -1.188994 175.793059 -3.357953 -0.535853 -0.000006 -0.000002 0.050179 69.044668 6.928817 2.037797 25.456928 -7.353476 -0.000003 4.001352 173.111664 -1.505410 -0.000005 -0.000005 -1.319561 -6.878214 3.478446 0.871467 -0.000003 0.000001 -0.079500 67.449033 -7.001208 -1.963634 25.456914 7.345076 -0.000004 
